<svg width="20" height="20" viewBox="0 0 20 20" fill="none" xmlns="http://www.w3.org/2000/svg">
<path d="M19.0967 7.41927C19.039 7.24946 18.9329 7.10025 18.7914 6.99006C18.6499 6.87987 18.4793 6.81353 18.3005 6.79922L13.0714 6.38371L10.8086 1.3747C10.7365 1.21337 10.6193 1.07634 10.4711 0.980156C10.3228 0.883971 10.15 0.832739 9.97326 0.832642C9.79657 0.832545 9.62362 0.883587 9.4753 0.979609C9.32697 1.07563 9.2096 1.21253 9.13736 1.37378L6.87455 6.38371L1.64539 6.79922C1.4697 6.81314 1.30174 6.87738 1.1616 6.98425C1.02147 7.09113 0.915087 7.23612 0.855191 7.40187C0.795296 7.56762 0.784422 7.74712 0.823869 7.91889C0.863317 8.09066 0.951416 8.24743 1.07763 8.37044L4.94193 12.1375L3.57526 18.0555C3.53376 18.2347 3.54706 18.4221 3.61343 18.5936C3.6798 18.7651 3.79618 18.9127 3.94747 19.0172C4.09876 19.1217 4.27797 19.1783 4.46184 19.1797C4.64571 19.1811 4.82576 19.1272 4.97862 19.025L9.97296 15.6955L14.9673 19.025C15.1235 19.1288 15.3078 19.1822 15.4953 19.1781C15.6828 19.1739 15.8645 19.1125 16.0161 19.002C16.1676 18.8916 16.2817 18.7373 16.3429 18.5601C16.4042 18.3828 16.4097 18.1911 16.3587 18.0106L14.6811 12.1403L18.8417 8.39612C19.1141 8.15031 19.2141 7.7669 19.0967 7.41927Z" fill="#F3CD03"/>
</svg>
