<svg width="192" height="57" viewBox="0 0 192 57" fill="none" xmlns="http://www.w3.org/2000/svg">
<g clip-path="url(#clip0_1479_728)">
<path d="M1.24 15.04H12.56V43H6.56V20.36H1.24V15.04ZM27.3328 37.96C29.0661 37.96 30.3995 37.3867 31.3328 36.24C32.2928 35.0667 32.8795 33.48 33.0928 31.48C31.3861 32.6267 29.5461 33.2 27.5728 33.2C24.9595 33.2 22.7728 32.3467 21.0128 30.64C19.2795 28.9067 18.4128 26.6267 18.4128 23.8C18.4128 20.9733 19.3461 18.7067 21.2128 17C23.1061 15.2667 25.4795 14.4 28.3328 14.4C30.3061 14.4 32.0128 14.7867 33.4528 15.56C34.9195 16.3067 36.0661 17.36 36.8928 18.72C38.4661 21.36 39.2528 24.6667 39.2528 28.64C39.2528 31.2 38.9328 33.4533 38.2928 35.4C37.6795 37.32 36.8395 38.84 35.7728 39.96C33.5861 42.2 30.9328 43.32 27.8128 43.32C26.5061 43.32 25.2528 43.1333 24.0528 42.76C22.8528 42.36 21.9461 41.9733 21.3328 41.6C20.7195 41.2 20.0128 40.6933 19.2128 40.08L22.3328 35.68C22.5195 35.84 22.7595 36.0533 23.0528 36.32C23.3728 36.56 23.9728 36.8933 24.8528 37.32C25.7328 37.7467 26.5595 37.96 27.3328 37.96ZM28.1728 27.88C29.4261 27.88 30.4661 27.52 31.2928 26.8C32.1195 26.08 32.5328 25.1333 32.5328 23.96C32.5328 22.7867 32.1328 21.7733 31.3328 20.92C30.5328 20.0667 29.5328 19.64 28.3328 19.64C27.1328 19.64 26.1461 20.0267 25.3728 20.8C24.6261 21.5467 24.2528 22.5067 24.2528 23.68C24.2528 24.8533 24.5995 25.8533 25.2928 26.68C25.9861 27.48 26.9461 27.88 28.1728 27.88ZM44.9291 42.32C44.2624 41.6267 43.9291 40.7867 43.9291 39.8C43.9291 38.8133 44.2624 37.9867 44.9291 37.32C45.6224 36.6267 46.4624 36.28 47.4491 36.28C48.4357 36.28 49.2624 36.6267 49.9291 37.32C50.6224 37.9867 50.9691 38.8133 50.9691 39.8C50.9691 40.7867 50.6224 41.6267 49.9291 42.32C49.2624 42.9867 48.4357 43.32 47.4491 43.32C46.4624 43.32 45.6224 42.9867 44.9291 42.32ZM64.4125 37.96C66.1458 37.96 67.4792 37.3867 68.4125 36.24C69.3725 35.0667 69.9592 33.48 70.1725 31.48C68.4658 32.6267 66.6258 33.2 64.6525 33.2C62.0392 33.2 59.8525 32.3467 58.0925 30.64C56.3592 28.9067 55.4925 26.6267 55.4925 23.8C55.4925 20.9733 56.4258 18.7067 58.2925 17C60.1858 15.2667 62.5592 14.4 65.4125 14.4C67.3858 14.4 69.0925 14.7867 70.5325 15.56C71.9992 16.3067 73.1458 17.36 73.9725 18.72C75.5458 21.36 76.3325 24.6667 76.3325 28.64C76.3325 31.2 76.0125 33.4533 75.3725 35.4C74.7592 37.32 73.9192 38.84 72.8525 39.96C70.6658 42.2 68.0125 43.32 64.8925 43.32C63.5858 43.32 62.3325 43.1333 61.1325 42.76C59.9325 42.36 59.0258 41.9733 58.4125 41.6C57.7992 41.2 57.0925 40.6933 56.2925 40.08L59.4125 35.68C59.5992 35.84 59.8392 36.0533 60.1325 36.32C60.4525 36.56 61.0525 36.8933 61.9325 37.32C62.8125 37.7467 63.6392 37.96 64.4125 37.96ZM65.2525 27.88C66.5058 27.88 67.5458 27.52 68.3725 26.8C69.1992 26.08 69.6125 25.1333 69.6125 23.96C69.6125 22.7867 69.2125 21.7733 68.4125 20.92C67.6125 20.0667 66.6125 19.64 65.4125 19.64C64.2125 19.64 63.2258 20.0267 62.4525 20.8C61.7058 21.5467 61.3325 22.5067 61.3325 23.68C61.3325 24.8533 61.6792 25.8533 62.3725 26.68C63.0658 27.48 64.0258 27.88 65.2525 27.88ZM89.7688 37.96C91.5021 37.96 92.8354 37.3867 93.7688 36.24C94.7288 35.0667 95.3154 33.48 95.5288 31.48C93.8221 32.6267 91.9821 33.2 90.0088 33.2C87.3954 33.2 85.2088 32.3467 83.4488 30.64C81.7154 28.9067 80.8488 26.6267 80.8488 23.8C80.8488 20.9733 81.7821 18.7067 83.6488 17C85.5421 15.2667 87.9154 14.4 90.7688 14.4C92.7421 14.4 94.4488 14.7867 95.8888 15.56C97.3554 16.3067 98.5021 17.36 99.3288 18.72C100.902 21.36 101.689 24.6667 101.689 28.64C101.689 31.2 101.369 33.4533 100.729 35.4C100.115 37.32 99.2754 38.84 98.2088 39.96C96.0221 42.2 93.3688 43.32 90.2488 43.32C88.9421 43.32 87.6888 43.1333 86.4888 42.76C85.2888 42.36 84.3821 41.9733 83.7688 41.6C83.1554 41.2 82.4488 40.6933 81.6488 40.08L84.7688 35.68C84.9554 35.84 85.1954 36.0533 85.4888 36.32C85.8088 36.56 86.4088 36.8933 87.2888 37.32C88.1688 37.7467 88.9954 37.96 89.7688 37.96ZM90.6088 27.88C91.8621 27.88 92.9021 27.52 93.7288 26.8C94.5554 26.08 94.9688 25.1333 94.9688 23.96C94.9688 22.7867 94.5688 21.7733 93.7688 20.92C92.9688 20.0667 91.9688 19.64 90.7688 19.64C89.5688 19.64 88.5821 20.0267 87.8088 20.8C87.0621 21.5467 86.6888 22.5067 86.6888 23.68C86.6888 24.8533 87.0354 25.8533 87.7288 26.68C88.4221 27.48 89.3821 27.88 90.6088 27.88Z" fill="#23A6F0"/>
<path d="M118.32 23.604V22.436C116.965 22.2227 115.717 21.6093 114.576 20.596L116.064 18.788C116.896 19.5133 117.648 19.9773 118.32 20.18V17.796C117.2 17.508 116.379 17.124 115.856 16.644C115.333 16.1533 115.072 15.4547 115.072 14.548C115.072 13.6307 115.371 12.8787 115.968 12.292C116.565 11.6947 117.349 11.3373 118.32 11.22V10.436H120.016V11.252C121.083 11.4013 122.144 11.844 123.2 12.58L121.888 14.468C121.216 13.988 120.592 13.668 120.016 13.508V15.812C121.168 16.1107 122.016 16.5107 122.56 17.012C123.115 17.5133 123.392 18.2227 123.392 19.14C123.392 20.0573 123.083 20.8147 122.464 21.412C121.856 22.0093 121.04 22.3667 120.016 22.484V23.604H118.32ZM120.832 19.268C120.832 19.044 120.773 18.8573 120.656 18.708C120.539 18.5587 120.325 18.42 120.016 18.292V20.26C120.56 20.0893 120.832 19.7587 120.832 19.268ZM118.32 13.444C117.861 13.604 117.632 13.8973 117.632 14.324C117.632 14.7507 117.861 15.076 118.32 15.3V13.444Z" fill="#23A6F0"/>
<path d="M119.348 35.7H115.316V45.5H117.136V42.672H119.348C121.924 42.672 123.52 41.342 123.52 39.186C123.52 37.016 121.924 35.7 119.348 35.7ZM119.264 41.132H117.136V37.24H119.264C120.86 37.24 121.686 37.954 121.686 39.186C121.686 40.418 120.86 41.132 119.264 41.132ZM132.37 41.804C132.37 39.466 130.774 37.94 128.59 37.94C126.364 37.94 124.726 39.536 124.726 41.762C124.726 43.988 126.35 45.598 128.856 45.598C130.144 45.598 131.194 45.178 131.866 44.38L130.928 43.302C130.396 43.848 129.738 44.114 128.898 44.114C127.596 44.114 126.686 43.414 126.476 42.322H132.342C132.356 42.154 132.37 41.944 132.37 41.804ZM128.59 39.34C129.738 39.34 130.564 40.082 130.704 41.16H126.462C126.63 40.068 127.456 39.34 128.59 39.34ZM135.917 39.116V38.024H134.251V45.5H136.001V41.874C136.001 40.348 136.841 39.564 138.171 39.564C138.297 39.564 138.423 39.578 138.577 39.606V37.94C137.331 37.94 136.421 38.332 135.917 39.116ZM155.291 45.5L155.277 35.7H153.779L149.957 42.196L146.065 35.7H144.567V45.5H146.303V39.088L149.523 44.38H150.335L153.555 39.004L153.569 45.5H155.291ZM161.33 45.598C163.654 45.598 165.32 44.002 165.32 41.762C165.32 39.522 163.654 37.94 161.33 37.94C159.034 37.94 157.354 39.522 157.354 41.762C157.354 44.002 159.034 45.598 161.33 45.598ZM161.33 44.1C160.07 44.1 159.118 43.19 159.118 41.762C159.118 40.334 160.07 39.424 161.33 39.424C162.604 39.424 163.556 40.334 163.556 41.762C163.556 43.19 162.604 44.1 161.33 44.1ZM171.436 37.94C170.344 37.94 169.434 38.304 168.86 38.99V38.024H167.194V45.5H168.944V41.72C168.944 40.222 169.784 39.466 171.03 39.466C172.15 39.466 172.808 40.11 172.808 41.44V45.5H174.558V41.216C174.558 38.962 173.228 37.94 171.436 37.94ZM180.982 43.848C180.716 44.058 180.366 44.156 180.002 44.156C179.33 44.156 178.966 43.764 178.966 43.036V39.48H180.968V38.08H178.966V36.372H177.216V38.08H175.984V39.48H177.216V43.078C177.216 44.73 178.154 45.598 179.792 45.598C180.422 45.598 181.052 45.43 181.472 45.094L180.982 43.848ZM187.353 37.94C186.317 37.94 185.435 38.276 184.861 38.892V35.112H183.111V45.5H184.861V41.72C184.861 40.222 185.701 39.466 186.947 39.466C188.067 39.466 188.725 40.11 188.725 41.44V45.5H190.475V41.216C190.475 38.962 189.145 37.94 187.353 37.94Z" fill="#8EC2F2"/>
</g>
<defs>
<clipPath id="clip0_1479_728">
<rect width="192" height="57" fill="white"/>
</clipPath>
</defs>
</svg>
