<svg width="176" height="57" viewBox="0 0 176 57" fill="none" xmlns="http://www.w3.org/2000/svg">
<g clip-path="url(#clip0_1479_691)">
<path d="M11 37.96C12.7333 37.96 14.0667 37.3867 15 36.24C15.96 35.0667 16.5467 33.48 16.76 31.48C15.0533 32.6267 13.2133 33.2 11.24 33.2C8.62667 33.2 6.44 32.3467 4.68 30.64C2.94667 28.9067 2.08 26.6267 2.08 23.8C2.08 20.9733 3.01333 18.7067 4.88 17C6.77333 15.2667 9.14667 14.4 12 14.4C13.9733 14.4 15.68 14.7867 17.12 15.56C18.5867 16.3067 19.7333 17.36 20.56 18.72C22.1333 21.36 22.92 24.6667 22.92 28.64C22.92 31.2 22.6 33.4533 21.96 35.4C21.3467 37.32 20.5067 38.84 19.44 39.96C17.2533 42.2 14.6 43.32 11.48 43.32C10.1733 43.32 8.92 43.1333 7.72 42.76C6.52 42.36 5.61333 41.9733 5 41.6C4.38667 41.2 3.68 40.6933 2.88 40.08L6 35.68C6.18667 35.84 6.42667 36.0533 6.72 36.32C7.04 36.56 7.64 36.8933 8.52 37.32C9.4 37.7467 10.2267 37.96 11 37.96ZM11.84 27.88C13.0933 27.88 14.1333 27.52 14.96 26.8C15.7867 26.08 16.2 25.1333 16.2 23.96C16.2 22.7867 15.8 21.7733 15 20.92C14.2 20.0667 13.2 19.64 12 19.64C10.8 19.64 9.81333 20.0267 9.04 20.8C8.29333 21.5467 7.92 22.5067 7.92 23.68C7.92 24.8533 8.26667 25.8533 8.96 26.68C9.65333 27.48 10.6133 27.88 11.84 27.88ZM28.5963 42.32C27.9296 41.6267 27.5963 40.7867 27.5963 39.8C27.5963 38.8133 27.9296 37.9867 28.5963 37.32C29.2896 36.6267 30.1296 36.28 31.1163 36.28C32.1029 36.28 32.9296 36.6267 33.5963 37.32C34.2896 37.9867 34.6363 38.8133 34.6363 39.8C34.6363 40.7867 34.2896 41.6267 33.5963 42.32C32.9296 42.9867 32.1029 43.32 31.1163 43.32C30.1296 43.32 29.2896 42.9867 28.5963 42.32ZM48.0797 37.96C49.813 37.96 51.1464 37.3867 52.0797 36.24C53.0397 35.0667 53.6264 33.48 53.8397 31.48C52.133 32.6267 50.293 33.2 48.3197 33.2C45.7064 33.2 43.5197 32.3467 41.7597 30.64C40.0264 28.9067 39.1597 26.6267 39.1597 23.8C39.1597 20.9733 40.093 18.7067 41.9597 17C43.853 15.2667 46.2264 14.4 49.0797 14.4C51.053 14.4 52.7597 14.7867 54.1997 15.56C55.6664 16.3067 56.813 17.36 57.6397 18.72C59.213 21.36 59.9997 24.6667 59.9997 28.64C59.9997 31.2 59.6797 33.4533 59.0397 35.4C58.4264 37.32 57.5864 38.84 56.5197 39.96C54.333 42.2 51.6797 43.32 48.5597 43.32C47.253 43.32 45.9997 43.1333 44.7997 42.76C43.5997 42.36 42.693 41.9733 42.0797 41.6C41.4664 41.2 40.7597 40.6933 39.9597 40.08L43.0797 35.68C43.2664 35.84 43.5064 36.0533 43.7997 36.32C44.1197 36.56 44.7197 36.8933 45.5997 37.32C46.4797 37.7467 47.3064 37.96 48.0797 37.96ZM48.9197 27.88C50.173 27.88 51.213 27.52 52.0397 26.8C52.8664 26.08 53.2797 25.1333 53.2797 23.96C53.2797 22.7867 52.8797 21.7733 52.0797 20.92C51.2797 20.0667 50.2797 19.64 49.0797 19.64C47.8797 19.64 46.893 20.0267 46.1197 20.8C45.373 21.5467 44.9997 22.5067 44.9997 23.68C44.9997 24.8533 45.3464 25.8533 46.0397 26.68C46.733 27.48 47.693 27.88 48.9197 27.88ZM73.4359 37.96C75.1693 37.96 76.5026 37.3867 77.4359 36.24C78.3959 35.0667 78.9826 33.48 79.1959 31.48C77.4893 32.6267 75.6493 33.2 73.6759 33.2C71.0626 33.2 68.8759 32.3467 67.1159 30.64C65.3826 28.9067 64.5159 26.6267 64.5159 23.8C64.5159 20.9733 65.4493 18.7067 67.3159 17C69.2093 15.2667 71.5826 14.4 74.4359 14.4C76.4093 14.4 78.1159 14.7867 79.5559 15.56C81.0226 16.3067 82.1693 17.36 82.9959 18.72C84.5693 21.36 85.3559 24.6667 85.3559 28.64C85.3559 31.2 85.0359 33.4533 84.3959 35.4C83.7826 37.32 82.9426 38.84 81.8759 39.96C79.6893 42.2 77.0359 43.32 73.9159 43.32C72.6093 43.32 71.3559 43.1333 70.1559 42.76C68.9559 42.36 68.0493 41.9733 67.4359 41.6C66.8226 41.2 66.1159 40.6933 65.3159 40.08L68.4359 35.68C68.6226 35.84 68.8626 36.0533 69.1559 36.32C69.4759 36.56 70.0759 36.8933 70.9559 37.32C71.8359 37.7467 72.6626 37.96 73.4359 37.96ZM74.2759 27.88C75.5293 27.88 76.5693 27.52 77.3959 26.8C78.2226 26.08 78.6359 25.1333 78.6359 23.96C78.6359 22.7867 78.2359 21.7733 77.4359 20.92C76.6359 20.0667 75.6359 19.64 74.4359 19.64C73.2359 19.64 72.2493 20.0267 71.4759 20.8C70.7293 21.5467 70.3559 22.5067 70.3559 23.68C70.3559 24.8533 70.7026 25.8533 71.3959 26.68C72.0893 27.48 73.0493 27.88 74.2759 27.88Z" fill="#23A6F0"/>
<path d="M102.32 23.604V22.436C100.965 22.2227 99.7173 21.6093 98.576 20.596L100.064 18.788C100.896 19.5133 101.648 19.9773 102.32 20.18V17.796C101.2 17.508 100.379 17.124 99.856 16.644C99.3333 16.1533 99.072 15.4547 99.072 14.548C99.072 13.6307 99.3707 12.8787 99.968 12.292C100.565 11.6947 101.349 11.3373 102.32 11.22V10.436H104.016V11.252C105.083 11.4013 106.144 11.844 107.2 12.58L105.888 14.468C105.216 13.988 104.592 13.668 104.016 13.508V15.812C105.168 16.1107 106.016 16.5107 106.56 17.012C107.115 17.5133 107.392 18.2227 107.392 19.14C107.392 20.0573 107.083 20.8147 106.464 21.412C105.856 22.0093 105.04 22.3667 104.016 22.484V23.604H102.32ZM104.832 19.268C104.832 19.044 104.773 18.8573 104.656 18.708C104.539 18.5587 104.325 18.42 104.016 18.292V20.26C104.56 20.0893 104.832 19.7587 104.832 19.268ZM102.32 13.444C101.861 13.604 101.632 13.8973 101.632 14.324C101.632 14.7507 101.861 15.076 102.32 15.3V13.444Z" fill="#23A6F0"/>
<path d="M103.348 35.7H99.316V45.5H101.136V42.672H103.348C105.924 42.672 107.52 41.342 107.52 39.186C107.52 37.016 105.924 35.7 103.348 35.7ZM103.264 41.132H101.136V37.24H103.264C104.86 37.24 105.686 37.954 105.686 39.186C105.686 40.418 104.86 41.132 103.264 41.132ZM116.37 41.804C116.37 39.466 114.774 37.94 112.59 37.94C110.364 37.94 108.726 39.536 108.726 41.762C108.726 43.988 110.35 45.598 112.856 45.598C114.144 45.598 115.194 45.178 115.866 44.38L114.928 43.302C114.396 43.848 113.738 44.114 112.898 44.114C111.596 44.114 110.686 43.414 110.476 42.322H116.342C116.356 42.154 116.37 41.944 116.37 41.804ZM112.59 39.34C113.738 39.34 114.564 40.082 114.704 41.16H110.462C110.63 40.068 111.456 39.34 112.59 39.34ZM119.917 39.116V38.024H118.251V45.5H120.001V41.874C120.001 40.348 120.841 39.564 122.171 39.564C122.297 39.564 122.423 39.578 122.577 39.606V37.94C121.331 37.94 120.421 38.332 119.917 39.116ZM139.291 45.5L139.277 35.7H137.779L133.957 42.196L130.065 35.7H128.567V45.5H130.303V39.088L133.523 44.38H134.335L137.555 39.004L137.569 45.5H139.291ZM145.33 45.598C147.654 45.598 149.32 44.002 149.32 41.762C149.32 39.522 147.654 37.94 145.33 37.94C143.034 37.94 141.354 39.522 141.354 41.762C141.354 44.002 143.034 45.598 145.33 45.598ZM145.33 44.1C144.07 44.1 143.118 43.19 143.118 41.762C143.118 40.334 144.07 39.424 145.33 39.424C146.604 39.424 147.556 40.334 147.556 41.762C147.556 43.19 146.604 44.1 145.33 44.1ZM155.436 37.94C154.344 37.94 153.434 38.304 152.86 38.99V38.024H151.194V45.5H152.944V41.72C152.944 40.222 153.784 39.466 155.03 39.466C156.15 39.466 156.808 40.11 156.808 41.44V45.5H158.558V41.216C158.558 38.962 157.228 37.94 155.436 37.94ZM164.982 43.848C164.716 44.058 164.366 44.156 164.002 44.156C163.33 44.156 162.966 43.764 162.966 43.036V39.48H164.968V38.08H162.966V36.372H161.216V38.08H159.984V39.48H161.216V43.078C161.216 44.73 162.154 45.598 163.792 45.598C164.422 45.598 165.052 45.43 165.472 45.094L164.982 43.848ZM171.353 37.94C170.317 37.94 169.435 38.276 168.861 38.892V35.112H167.111V45.5H168.861V41.72C168.861 40.222 169.701 39.466 170.947 39.466C172.067 39.466 172.725 40.11 172.725 41.44V45.5H174.475V41.216C174.475 38.962 173.145 37.94 171.353 37.94Z" fill="#8EC2F2"/>
</g>
<defs>
<clipPath id="clip0_1479_691">
<rect width="176" height="57" fill="white"/>
</clipPath>
</defs>
</svg>
