<svg width="48" height="38" viewBox="0 0 48 38" fill="none" xmlns="http://www.w3.org/2000/svg">
<path fill-rule="evenodd" clip-rule="evenodd" d="M45.9167 37.6666C45.9167 37.6666 49 37.6666 49 34.5555C49 31.4444 45.9167 22.1111 33.5834 22.1111C21.25 22.1111 18.1667 31.4444 18.1667 34.5555C18.1667 37.6666 21.25 37.6666 21.25 37.6666H45.9167ZM21.3179 34.5555H45.8489C45.8633 34.5538 45.8777 34.5518 45.892 34.5493L45.9167 34.5431C45.9105 33.7218 45.4018 31.3386 43.5734 29.192C41.8714 27.1791 38.8805 25.2222 33.5834 25.2222C28.2893 25.2222 25.2984 27.1822 23.5934 29.192C21.7649 31.3386 21.2531 33.7249 21.25 34.5431C21.2726 34.5475 21.2952 34.5516 21.3179 34.5555ZM33.5834 15.8889C35.2189 15.8889 36.7874 15.2333 37.9438 14.0664C39.1003 12.8995 39.75 11.3169 39.75 9.66665C39.75 8.01641 39.1003 6.43376 37.9438 5.26687C36.7874 4.09998 35.2189 3.44442 33.5834 3.44442C31.9478 3.44442 30.3793 4.09998 29.2229 5.26687C28.0664 6.43376 27.4167 8.01641 27.4167 9.66665C27.4167 11.3169 28.0664 12.8995 29.2229 14.0664C30.3793 15.2333 31.9478 15.8889 33.5834 15.8889ZM42.8334 9.66665C42.8334 10.8923 42.5941 12.106 42.1292 13.2384C41.6644 14.3707 40.983 15.3996 40.1241 16.2663C39.2651 17.133 38.2454 17.8205 37.1232 18.2895C36.0009 18.7586 34.7981 19 33.5834 19C32.3686 19 31.1658 18.7586 30.0435 18.2895C28.9213 17.8205 27.9016 17.133 27.0426 16.2663C26.1837 15.3996 25.5023 14.3707 25.0375 13.2384C24.5726 12.106 24.3334 10.8923 24.3334 9.66665C24.3334 7.19129 25.3079 4.81732 27.0426 3.06698C28.7773 1.31664 31.1301 0.333313 33.5834 0.333313C36.0366 0.333313 38.3894 1.31664 40.1241 3.06698C41.8588 4.81732 42.8334 7.19129 42.8334 9.66665ZM21.0527 22.9822C19.8193 22.5903 18.5479 22.3327 17.2602 22.2138C16.5366 22.1443 15.8102 22.1101 15.0834 22.1111C2.75002 22.1111 -0.333313 31.4444 -0.333313 34.5555C-0.333313 36.6306 0.693437 37.6666 2.75002 37.6666H15.7494C15.2923 36.6954 15.0643 35.6305 15.0834 34.5555C15.0834 31.4133 16.2458 28.2026 18.4442 25.5209C19.1934 24.6062 20.066 23.7506 21.0527 22.9822ZM14.8367 25.2222C9.69369 25.2844 6.77377 27.2133 5.09335 29.192C3.2526 31.3511 2.75002 33.7435 2.75002 34.5555H12C12 31.3044 12.9959 28.0658 14.8367 25.2222ZM4.29169 11.2222C4.29169 8.74685 5.26624 6.37288 7.00095 4.62254C8.73566 2.8722 11.0884 1.88887 13.5417 1.88887C15.9949 1.88887 18.3477 2.8722 20.0824 4.62254C21.8171 6.37288 22.7917 8.74685 22.7917 11.2222C22.7917 13.6976 21.8171 16.0715 20.0824 17.8219C18.3477 19.5722 15.9949 20.5555 13.5417 20.5555C11.0884 20.5555 8.73566 19.5722 7.00095 17.8219C5.26624 16.0715 4.29169 13.6976 4.29169 11.2222ZM13.5417 4.99998C11.9062 4.99998 10.3377 5.65553 9.18119 6.82243C8.02472 7.98932 7.37502 9.57197 7.37502 11.2222C7.37502 12.8724 8.02472 14.4551 9.18119 15.622C10.3377 16.7889 11.9062 17.4444 13.5417 17.4444C15.1772 17.4444 16.7457 16.7889 17.9022 15.622C19.0587 14.4551 19.7084 12.8724 19.7084 11.2222C19.7084 9.57197 19.0587 7.98932 17.9022 6.82243C16.7457 5.65553 15.1772 4.99998 13.5417 4.99998Z" fill="#23A6F0"/>
</svg>
